<svg xmlns="http://www.w3.org/2000/svg" width="22" height="20" viewBox="0 0 22 20" class="h-8 w-8 fill-current text-slate-400 laptop:h-12 laptop:w-12"><path d="M2.648 20h16.704c.801 0 1.443-.252 1.925-.755.482-.504.723-1.125.723-1.863a2.41 2.41 0 0 0-.367-1.27L13.281 1.35a2.492 2.492 0 0 0-.987-1.007 2.608 2.608 0 0 0-2.588 0c-.414.229-.75.564-1.008 1.007L.346 16.113c-.23.403-.346.826-.346 1.269 0 .738.241 1.36.723 1.863.482.503 1.124.755 1.925.755ZM11 17.1c-.462 0-.856-.158-1.181-.474a1.573 1.573 0 0 1-.49-1.178c0-.443.164-.829.49-1.158A1.6 1.6 0 0 1 11 13.797c.475 0 .88.164 1.212.493.333.329.492.715.479 1.158 0 .47-.163.863-.49 1.178A1.662 1.662 0 0 1 11 17.1Zm.02-4.592c-.366 0-.665-.108-.896-.323a1.145 1.145 0 0 1-.367-.825l-.142-5.378c-.014-.403.108-.735.366-.997.259-.262.605-.393 1.04-.393.407 0 .74.131.998.393s.387.594.387.997l-.163 5.378c-.014.335-.136.61-.367.825-.23.215-.516.323-.856.323Z"></path></svg>